HIERARCHY
ROOT root
{
	OFFSET 0.000000 0.000000 0.000000
	CHANNELS 6 Xposition Yposition Zposition Zrotation Yrotation Xrotation
	JOINT lhip
	{
		OFFSET 0.058581 -0.082280 -0.017664
		CHANNELS 3 Zrotation Yrotation Xrotation
		JOINT lknee
		{
			OFFSET 0.043451 -0.386469 0.008037
			CHANNELS 3 Zrotation Yrotation Xrotation
			JOINT lankle
			{
				OFFSET -0.014790 -0.426874 -0.037428
				CHANNELS 3 Zrotation Yrotation Xrotation
				JOINT ltoe
				{
					OFFSET 0.041054 -0.060286 0.122042
					CHANNELS 3 Zrotation Yrotation Xrotation
					End Site
					{
						OFFSET 0.000000 0.000000 0.000000
					}
				}
			}
		}
	}
	JOINT rhip
	{
		OFFSET -0.060310 -0.090513 -0.013543
		CHANNELS 3 Zrotation Yrotation Xrotation
		JOINT rknee
		{
			OFFSET -0.043257 -0.383688 -0.004843
			CHANNELS 3 Zrotation Yrotation Xrotation
			JOINT rankle
			{
				OFFSET 0.019056 -0.420046 -0.034562
				CHANNELS 3 Zrotation Yrotation Xrotation
				JOINT rtoe
				{
					OFFSET -0.034840 -0.062106 0.130323
					CHANNELS 3 Zrotation Yrotation Xrotation
					End Site
					{
						OFFSET 0.000000 0.000000 0.000000
					}
				}
			}
		}
	}
	JOINT lowerback
	{
		OFFSET 0.004439 0.124404 -0.038385
		CHANNELS 3 Zrotation Yrotation Xrotation
		JOINT upperback
		{
			OFFSET 0.004488 0.137956 0.026820
			CHANNELS 3 Zrotation Yrotation Xrotation
			JOINT chest
			{
				OFFSET -0.002265 0.056032 0.002855
				CHANNELS 3 Zrotation Yrotation Xrotation
				JOINT lowerneck
				{
					OFFSET -0.013390 0.211636 -0.033468
					CHANNELS 3 Zrotation Yrotation Xrotation
					JOINT upperneck
					{
						OFFSET 0.010113 0.088937 0.050410
						CHANNELS 3 Zrotation Yrotation Xrotation
						End Site
						{
							OFFSET 0.000000 0.000000 0.000000
						}
					}
				}
				JOINT lclavicle
				{
					OFFSET 0.071702 0.114000 -0.018898
					CHANNELS 3 Zrotation Yrotation Xrotation
					JOINT lshoulder
					{
						OFFSET 0.122921 0.045205 -0.019046
						CHANNELS 3 Zrotation Yrotation Xrotation
						JOINT lelbow
						{
							OFFSET 0.255332 -0.015649 -0.022946
							CHANNELS 3 Zrotation Yrotation Xrotation
							JOINT lwrist
							{
								OFFSET 0.265709 0.012698 -0.007375
								CHANNELS 3 Zrotation Yrotation Xrotation
								End Site
								{
									OFFSET 0.000000 0.000000 0.000000
								}
							}
						}
					}
				}
				JOINT rclavicle
				{
					OFFSET -0.082954 0.112472 -0.023707
					CHANNELS 3 Zrotation Yrotation Xrotation
					JOINT rshoulder
					{
						OFFSET -0.113228 0.046853 -0.008472
						CHANNELS 3 Zrotation Yrotation Xrotation
						JOINT relbow
						{
							OFFSET -0.260127 -0.014369 -0.031269
							CHANNELS 3 Zrotation Yrotation Xrotation
							JOINT rwrist
							{
								OFFSET -0.269108 0.006794 -0.006027
								CHANNELS 3 Zrotation Yrotation Xrotation
								End Site
								{
									OFFSET 0.000000 0.000000 0.000000
								}
							}
						}
					}
				}
			}
		}
	}
}
MOTION
Frames: 10
Frame Time: 0.033333
0.119519 -0.037923 1.005766 -178.177791 0.950347 95.660165 1.628137 1.579492 8.941240 -8.595447 -2.260212 35.923637 -5.706638 14.079284 18.455034 0.000000 -0.000000 0.000000 -0.886264 9.148604 -38.108128 4.626159 -12.960537 25.650684 6.793972 -4.448496 5.729510 0.000000 -0.000000 0.000000 -1.300737 -10.524861 9.998618 2.831491 -1.464821 -2.171498 2.835143 -5.601338 -5.407509 -3.800416 6.669974 4.403972 0.497074 15.327425 -0.701967 -20.601711 1.528254 1.533488 -54.857928 -18.550720 18.269772 143.058848 -85.167547 -123.616967 21.670442 -7.557043 -20.797210 20.601630 -6.666001 1.877838 49.530394 -8.616398 14.726410 -0.082305 26.346697 4.482179 -15.455885 7.586621 -2.527181 
0.121116 0.040041 0.985060 -179.366642 -0.312498 92.657174 2.086942 3.416810 4.529344 -6.031907 2.540642 52.459545 -1.175147 15.982891 10.086609 0.000000 -0.000000 0.000000 1.768376 5.520859 -31.998326 5.078201 -9.640293 33.055090 0.332522 -2.837229 -10.598178 0.000000 -0.000000 0.000000 -1.488940 -7.840029 13.229859 1.862344 -1.281040 -6.417681 1.850582 -5.084760 -1.503966 -3.351818 7.403431 0.054212 -0.108813 12.320978 3.838459 -21.693906 1.914299 0.057741 -54.430687 -15.191599 18.312999 -170.330039 -87.036665 -169.248491 19.468679 -6.365112 -21.774599 22.517247 -5.375718 -0.211676 47.774869 -8.674060 13.776960 2.273807 29.224534 7.681882 -16.122030 7.262178 -3.104518 
0.124587 0.112962 0.967126 178.895196 -0.086274 89.484852 5.048914 4.101332 -1.500871 -2.189836 6.878051 66.796759 0.812476 15.503291 -1.032878 0.000000 -0.000000 0.000000 3.299990 4.969504 -27.289239 4.882664 -8.493109 41.661705 0.791204 -2.397605 -17.109257 0.000000 -0.000000 0.000000 0.243711 -5.349959 18.607315 1.048954 0.380865 -11.223054 0.629283 -3.949184 2.436289 -3.488399 7.349056 -6.037680 -1.795926 8.692102 8.662629 -22.667567 3.276861 -2.036727 -55.222683 -12.761977 19.112724 -56.917580 -88.085166 79.343771 16.291989 -6.316402 -20.563084 24.544989 -4.411487 -2.842186 46.718111 -6.343487 14.175085 1.456148 30.924902 8.891154 -16.092369 7.413603 -2.948645 
0.125006 0.176452 0.959804 176.660271 0.557982 90.767867 7.493009 2.199106 -15.709430 0.632887 11.481359 78.160137 2.046936 14.772680 -6.729153 0.000000 -0.000000 0.000000 3.701222 6.011504 -23.556415 7.637494 -6.948505 41.329773 0.385674 -3.168640 -20.135504 0.000000 -0.000000 0.000000 1.994817 -2.818197 18.767867 1.230898 1.630378 -9.314338 -0.282432 -2.107063 -0.066617 -4.006826 5.969733 -6.262097 -3.035559 6.568385 7.540775 -23.744974 5.185203 -1.287853 -55.624681 -10.161466 16.665601 -23.511305 -84.705344 48.787551 13.374602 -6.439067 -17.116973 25.264330 -3.101182 0.595567 47.095434 0.581430 12.111560 -1.870576 32.571965 7.308232 -16.220696 6.264097 -3.172388 
0.125997 0.241983 0.960793 175.637115 0.096894 90.038278 8.069726 0.899239 -27.072662 0.442369 12.887679 80.097298 2.593692 13.967838 -10.948410 0.000000 -0.000000 0.000000 4.152594 2.748256 -15.588893 8.718576 -2.918923 38.630773 0.120622 -2.327090 -22.251675 0.000000 -0.000000 0.000000 1.727333 0.297199 21.548863 0.809629 1.131105 -10.637897 -0.215125 -0.325203 0.380228 -4.360919 4.126223 -7.028995 -1.899623 4.503533 7.303224 -23.409153 5.808137 -0.833101 -55.175834 -5.971716 12.872990 -28.139002 -83.674044 53.394178 15.288060 -6.878148 -16.370362 24.182175 0.062224 1.943137 49.588676 4.384222 9.178970 -5.993552 36.902418 1.411349 -17.234001 6.784963 -3.804454 
0.127719 0.309230 0.966448 175.491567 -1.220288 90.550794 7.755108 -2.207183 -37.204760 -1.260678 14.731054 73.827470 1.876713 13.084387 -12.908134 0.000000 -0.000000 0.000000 4.023478 -0.609468 -9.140431 8.231847 2.370711 36.122901 1.660800 -2.483321 -22.469795 0.000000 -0.000000 0.000000 0.240943 3.796724 21.544625 0.804286 0.149422 -12.149743 -0.279677 0.696785 2.156597 -3.355384 3.779562 -7.956702 -1.262356 1.484928 8.525013 -22.923652 7.454536 -1.659621 -53.540622 -1.928117 11.853113 -29.860368 -83.277789 53.054383 18.969679 -5.261043 -18.296245 24.267207 1.032530 0.238573 50.412887 6.773339 9.977536 -9.682481 42.584642 -3.616414 -20.849345 4.817215 -7.653407 
0.129533 0.381620 0.976807 175.691757 -2.593292 92.393894 7.438055 -4.712041 -44.545225 -1.843839 16.634943 60.515684 2.950582 13.250098 -10.280342 0.000000 -0.000000 0.000000 2.749934 -3.790042 -2.989659 6.608183 5.808270 31.195904 3.298596 -0.819860 -19.013983 0.000000 -0.000000 0.000000 -1.824804 7.208215 16.784976 1.737281 -0.782170 -9.517881 -1.306279 1.235143 2.468066 -0.341333 5.286202 -7.573141 -2.879649 -2.979292 9.240180 -22.861786 10.965824 -2.505225 -50.225722 -0.602844 14.083093 -24.931371 -82.646468 45.516294 21.467789 -3.955372 -18.178387 26.269000 -1.178997 -2.101181 49.489473 10.260984 14.346767 -14.302179 47.812590 -7.730468 -17.640383 4.025164 -10.903281 
0.130921 0.457354 0.989998 175.939245 -3.435673 93.673317 6.146877 -6.625737 -46.088688 -1.765516 17.195569 41.043961 2.244139 12.471090 -0.141696 0.000000 -0.000000 0.000000 0.884858 -5.005239 3.890354 5.748798 6.128762 24.823551 5.208382 -0.163706 -10.388800 0.000000 -0.000000 0.000000 -2.793905 9.248895 13.510765 1.247407 -1.221622 -8.065531 -1.684486 2.067232 1.856368 -0.146974 3.963179 -4.592084 -1.499405 -4.958556 8.967812 -22.410077 12.622231 -2.360719 -47.429023 0.904326 14.283581 -20.539492 -81.202038 39.010401 21.368603 -4.915791 -17.067180 26.314348 -2.292927 -2.496715 49.570315 11.229405 15.594702 -16.467422 53.575225 -8.965068 -18.143317 5.317259 -11.177586 
0.133507 0.534204 1.002548 176.249158 -3.491012 94.664871 4.440481 -7.718840 -43.545374 -2.631503 16.351859 19.580336 -2.613448 10.074977 16.055840 0.000000 -0.000000 0.000000 -0.478785 -6.245854 8.776863 5.469793 4.844523 20.969402 6.885989 0.230532 2.276654 0.000000 -0.000000 0.000000 -3.380136 10.547402 9.883747 0.855109 -1.590864 -5.488952 -1.870821 2.611098 0.311581 -0.214540 2.820137 -1.036982 0.515990 -6.297826 8.645111 -21.712417 13.716666 -2.067340 -45.233769 2.134887 14.672879 -14.808890 -79.750335 31.651939 21.605749 -5.332898 -15.990939 25.873655 -3.004249 -2.371474 50.113947 11.443610 16.698640 -17.555621 57.912201 -9.363909 -18.544543 6.977531 -10.889164 
0.136125 0.612268 1.011917 176.513926 -2.937403 95.524231 2.613869 -7.636810 -40.728818 -3.905062 14.386905 6.565641 -5.574392 7.821107 22.469709 0.000000 -0.000000 0.000000 -1.147240 -7.788005 9.135485 4.620242 2.460070 24.251976 11.815818 -0.476728 16.753619 0.000000 -0.000000 0.000000 -4.484222 11.303501 5.529029 0.931177 -2.097201 -2.313671 -1.332909 2.879775 -2.056005 -0.642064 0.481495 4.089334 3.028452 -5.246732 7.211468 -20.144417 13.316050 -1.026377 -44.567168 4.733615 12.370198 -18.578965 -79.182659 34.013365 22.475324 -5.993456 -14.305057 24.991082 -2.295467 -1.235250 50.305067 10.138545 14.877925 -12.901735 60.568105 -7.059654 -22.965593 9.487801 -8.979504 
